<svg version="1.1" baseProfile="full" xmlns="http://www.w3.org/2000/svg" xmlns:xlink="http://www.w3.org/1999/xlink" style="width: 100%; height: 100%;" id="react-sketch-canvas" viewBox="0 0 325 193" width="325" height="193"><g id="react-sketch-canvas__eraser-stroke-group" display="none"><rect id="react-sketch-canvas__mask-background" x="0" y="0" width="100%" height="100%" fill="white"></rect></g><defs></defs><g id="react-sketch-canvas__canvas-background-group"><rect id="react-sketch-canvas__canvas-background" x="0" y="0" width="100%" height="100%" fill="white"></rect></g><g id="react-sketch-canvas__stroke-group-0" mask="url(#react-sketch-canvas__eraser-mask-0)"><path id="react-sketch-canvas__0" d="M 177.26666259765625,134.13330078125 C 176.26666259765625,133.13330078125 174.06666259765626,131.13330078125 172.26666259765625, 129.13330078125 C 170.46666259765624,127.13330078125 171.46666259765624,127.73330078125 168.26666259765625, 124.13330078125 C 165.06666259765626,120.53330078125 161.86666259765624,116.93330078125 156.26666259765625, 111.13330078125 C 150.66666259765626,105.33330078125 146.86666259765624,101.33330078125 140.26666259765625, 95.13330078125 C 133.66666259765626,88.93330078125 129.26666259765625,85.53330078125 123.26666259765625, 80.13330078125 C 117.26666259765625,74.73330078125 115.26666259765625,72.73330078125 110.26666259765625, 68.13330078125 C 105.26666259765625,63.53330078125 103.06666259765625,61.93330078125 98.26666259765625, 57.13330078125 C 93.46666259765625,52.33330078125 89.46666259765625,47.73330078125 86.26666259765625, 44.13330078125 C 83.06666259765625,40.53330078125 84.06666259765625,41.13330078125 82.26666259765625, 39.13330078125 C 80.46666259765625,37.13330078125 78.26666259765625,35.73330078125 77.26666259765625, 34.13330078125 C 76.26666259765625,32.53330078125 77.26666259765625,32.53330078125 77.26666259765625, 31.13330078125 C 77.26666259765625,29.73330078125 73.26666259765625,28.73330078125 77.26666259765625, 27.13330078125 C 81.26666259765625,25.53330078125 85.66666259765626,21.73330078125 97.26666259765625, 23.13330078125 C 108.86666259765624,24.53330078125 118.66666259765626,28.73330078125 135.26666259765625, 34.13330078125 C 151.86666259765624,39.53330078125 163.86666259765624,44.93330078125 180.26666259765625, 50.13330078125 C 196.66666259765626,55.33330078125 202.86666259765624,57.33330078125 217.26666259765625, 60.13330078125 C 231.66666259765626,62.93330078125 240.46666259765624,62.533300781250006 252.26666259765625, 64.13330078125 C 264.06666259765626,65.73330078125 269.26666259765625,67.13330078125 276.26666259765625, 68.13330078125 C 283.26666259765625,69.13330078125 284.06666259765626,68.93330078125 287.26666259765625, 69.13330078125 C 290.46666259765624,69.33330078125 295.26666259765625,66.93330078125 292.26666259765625, 69.13330078125 C 289.26666259765625,71.33330078125 280.8666625976563,75.73330078125 272.26666259765625, 80.13330078125 C 263.6666625976562,84.53330078125 260.06666259765626,86.53330078125 249.26666259765625, 91.13330078125 C 238.46666259765624,95.73330078125 240.06666259765626,96.73330078125001 218.26666259765625, 103.13330078125 C 196.46666259765624,109.53330078125 159.46666259765624,118.93330078125 140.26666259765625, 123.13330078125 C 121.06666259765625,127.33330078125 131.26666259765625,124.53330078125 122.26666259765625, 124.13330078125 C 113.26666259765625,123.73330078125 103.26666259765625,122.53330078125 95.26666259765625, 121.13330078125 C 87.26666259765625,119.73330078125 85.86666259765624,118.53330078125 82.26666259765625, 117.13330078125 C 78.66666259765626,115.73330078125 76.66666259765626,124.93330078125 77.26666259765625, 114.13330078125 C 77.86666259765624,103.33330078125 78.86666259765624,82.33330078125 85.26666259765625, 63.13330078125 C 91.66666259765626,43.93330078125 97.86666259765626,28.933300781250004 109.26666259765625, 18.13330078125 C 120.66666259765626,7.333300781250001 142.66666259765626,-7.466699218750001 142.26666259765625, 9.13330078125 C 141.86666259765624,25.73330078125 117.26666259765626,75.73330078125 107.26666259765625, 101.13330078125 C 97.26666259765625,126.53330078125 96.06666259765625,127.33330078125 92.26666259765625, 136.13330078125 C 88.46666259765625,144.93330078125 89.26666259765625,142.93330078125 88.26666259765625, 145.13330078125 C 87.26666259765625,147.33330078125 81.26666259765625,151.13330078125 87.26666259765625, 147.13330078125 C 93.26666259765625,143.13330078125 95.06666259765626,145.93330078125 118.26666259765625, 125.13330078125 C 141.46666259765624,104.33330078125 183.66666259765626,61.33330078125 203.26666259765625, 43.13330078125 C 222.86666259765624,24.933300781249997 211.46666259765624,37.33330078125 216.26666259765625, 34.13330078125 C 221.06666259765626,30.93330078125 223.06666259765626,29.13330078125 227.26666259765625, 27.13330078125 C 231.46666259765624,25.13330078125 234.46666259765624,24.73330078125 237.26666259765625, 24.13330078125 C 240.06666259765626,23.53330078125 240.26666259765625,18.33330078125 241.26666259765625, 24.13330078125 C 242.26666259765625,29.93330078125 242.66666259765626,44.93330078125 242.26666259765625, 53.13330078125 C 241.86666259765624,61.33330078125 240.26666259765625,58.53330078125 239.26666259765625, 65.13330078125 C 238.26666259765625,71.73330078125 237.66666259765626,80.93330078125 237.26666259765625, 86.13330078125 C 236.86666259765624,91.33330078125 235.46666259765624,89.93330078125 237.26666259765625, 91.13330078125 C 239.06666259765626,92.33330078125 240.66666259765626,94.53330078125 246.26666259765625, 92.13330078125 C 251.86666259765624,89.73330078125 260.46666259765624,82.73330078125 265.26666259765625, 79.13330078125 C 270.06666259765626,75.53330078125 272.26666259765625,77.73330078125 270.26666259765625, 74.13330078125 C 268.26666259765625,70.53330078125 275.26666259765625,61.333300781249996 255.26666259765625, 61.13330078125 C 235.26666259765625,60.933300781250004 202.86666259765624,67.53330078124998 170.26666259765625, 73.13330078125 C 137.66666259765626,78.73330078125001 117.86666259765626,84.53330078125 92.26666259765625, 89.13330078125 C 66.66666259765624,93.73330078125 53.66666259765625,94.73330078125 42.26666259765625, 96.13330078125 C 30.86666259765625,97.53330078125 37.66666259765625,96.13330078125 35.26666259765625, 96.13330078125 C 32.86666259765625,96.13330078125 26.86666259765625,96.93330078125 30.26666259765625, 96.13330078125 C 33.66666259765625,95.33330078125 44.86666259765625,92.33330078125 52.26666259765625, 92.13330078125 C 59.66666259765625,91.93330078125 60.06666259765625,92.33330078125 67.26666259765625, 95.13330078125 C 74.46666259765625,97.93330078125 80.26666259765625,99.13330078125 88.26666259765625, 106.13330078125 C 96.26666259765625,113.13330078125 101.86666259765624,121.73330078125 107.26666259765625, 130.13330078125 C 112.66666259765626,138.53330078125 113.66666259765626,144.53330078125 115.26666259765625, 148.13330078125" fill="none" stroke-linecap="round" stroke="black" stroke-width="4"></path></g></svg>